# xmcd
#
# Track frame offsets:
#	150
#	16897
#	34677
#	48750
#	67605
#	84270
#	101457
#	117497
#	133205
#	150635
#	164870
#	180527
#	196100
#	211517
#
# Disc length: 3034 seconds
#
# Revision: 0
# Processed by: cddbd v1.5.2PL0 Copyright (c) Steve Scherf et al.
# Submitted via: EasyCDDAExtractor 10.0.3.1
#
DISCID=a90bd80e
DTITLE=Various Artist\\ - Kidz Bop Country
DYEAR=1900
DGENRE=
TTITLE0=Life Is A Highway
TTITLE1=Baby Girl
TTITLE2=Living in Fast Forward
TTITLE3=Who Says You Can't Go Home
TTITLE4=Jesus Take the Wheel
TTITLE5=Better Life
TTITLE6=Lucky One
TTITLE7=What Hurts the Most
TTITLE8=Something's Got to Give
TTITLE9=Why
TTITLE10=The World
TTITLE11=Leave the Pieces
TTITLE12=Mr. Mom
TTITLE13=Suds In The Bucket
EXTD=
EXTT0=
EXTT1=
EXTT2=
EXTT3=
EXTT4=
EXTT5=
EXTT6=
EXTT7=
EXTT8=
EXTT9=
EXTT10=
EXTT11=
EXTT12=
EXTT13=
PLAYORDER=
